<svg width="365" height="365" viewBox="0 0 365 365" fill="none" xmlns="http://www.w3.org/2000/svg">
<g clip-path="url(#clip0)">
<path d="M355.641 296.125L69.5898 10.0739C57.1143 -2.40154 36.8884 -2.40154 24.4325 10.0739L9.35661 25.1264C-3.11887 37.6058 -3.11887 57.8316 9.35661 70.2876L295.408 356.339C307.887 368.814 328.113 368.814 340.569 356.339L355.621 341.286C368.12 328.83 368.12 308.601 355.641 296.125V296.125Z" fill="white"/>
<path d="M295.408 10.0739L9.35661 296.125C-3.11887 308.601 -3.11887 328.83 9.35661 341.286L24.4091 356.339C36.8884 368.814 57.1143 368.814 69.5703 356.339L355.641 70.3071C368.12 57.8316 368.12 37.6058 355.641 25.1498L340.588 10.0973C328.113 -2.40154 307.887 -2.40154 295.408 10.0739V10.0739Z" fill="white"/>
</g>
<defs>
<clipPath id="clip0">
<rect width="365" height="365" fill="white"/>
</clipPath>
</defs>
</svg>
