<svg width="25" height="25" viewBox="0 0 25 25" fill="none" xmlns="http://www.w3.org/2000/svg">
<g clip-path="url(#clip0)">
<path d="M23.074 15.7048C22.7301 15.7048 22.4514 15.9835 22.4514 16.3275V21.8557C22.4502 22.8869 21.6147 23.7226 20.5835 23.7236H3.11315C2.08192 23.7226 1.24648 22.8869 1.24526 21.8557V5.63064C1.24648 4.59965 2.08192 3.76397 3.11315 3.76275H8.64142C8.98532 3.76275 9.26405 3.48403 9.26405 3.14012C9.26405 2.79646 8.98532 2.51749 8.64142 2.51749H3.11315C1.39459 2.51944 0.00194572 3.91209 0 5.63064V21.856C0.00194572 23.5745 1.39459 24.9672 3.11315 24.9691H20.5835C22.3021 24.9672 23.6947 23.5745 23.6966 21.856V16.3275C23.6966 15.9835 23.4179 15.7048 23.074 15.7048V15.7048Z" fill="white"/>
<path d="M23.4501 0.915439C22.3558 -0.178783 20.5818 -0.178783 19.4876 0.915439L8.37948 12.0235C8.30336 12.0997 8.24839 12.194 8.21969 12.2976L6.75894 17.5713C6.69887 17.7875 6.75991 18.019 6.91849 18.1778C7.07731 18.3364 7.30885 18.3975 7.52507 18.3376L12.7987 16.8766C12.9023 16.8479 12.9967 16.793 13.0728 16.7169L24.1807 5.60851C25.2732 4.51356 25.2732 2.74101 24.1807 1.64606L23.4501 0.915439ZM9.73614 12.4282L18.8273 3.33688L21.7592 6.26884L12.6679 15.3602L9.73614 12.4282ZM9.15048 13.6035L11.4929 15.9461L8.25277 16.8438L9.15048 13.6035ZM23.3002 4.72807L22.6399 5.3884L19.7077 2.4562L20.3683 1.79588C20.9761 1.18808 21.9616 1.18808 22.5694 1.79588L23.3002 2.52649C23.9071 3.13502 23.9071 4.11979 23.3002 4.72807V4.72807Z" fill="white"/>
</g>
<defs>
<clipPath id="clip0">
<rect width="25" height="25" fill="white"/>
</clipPath>
</defs>
</svg>
