<svg width="512" height="512" viewBox="0 0 512 512" fill="none" xmlns="http://www.w3.org/2000/svg">
<g clip-path="url(#clip0)">
<path d="M511.92 126.535C511.641 123.707 510.54 120.869 508.605 118.508C507.858 117.595 515.498 125.294 394.601 4.39694C391.719 1.51498 387.807 0.00200077 383.989 0.00300075C374.893 0.00300075 54.0603 0.00300075 44.9984 0.00300075C20.1857 0.00300075 -0.00100708 20.1897 -0.00100708 45.0024V466.997C-0.00100708 491.809 20.1857 511.996 44.9984 511.996H466.993C491.805 511.996 511.992 491.809 511.992 466.997C511.993 102.816 512.033 127.685 511.92 126.535V126.535ZM344.995 30.0026V128.001C344.995 136.272 338.266 143.001 329.995 143.001H310.996V30.0026H344.995ZM280.996 30.0026V143.001H141.998C133.727 143.001 126.998 136.272 126.998 128.001V30.0026H280.996ZM344.995 320.999H126.998V301.999C126.998 293.728 133.727 286.999 141.998 286.999H329.995C338.266 286.999 344.995 293.728 344.995 301.999V320.999ZM126.998 481.996V350.998H344.995V481.996H126.998ZM481.993 466.997C481.993 475.268 475.264 481.996 466.994 481.996H374.995C374.995 462.442 374.995 324.291 374.995 301.999C374.995 277.186 354.808 256.999 329.995 256.999H141.998C117.185 256.999 96.9987 277.186 96.9987 301.999V481.996H44.9994C36.7285 481.996 29.9996 475.268 29.9996 466.997V45.0024C29.9996 36.7315 36.7285 30.0026 44.9994 30.0026H96.9987V128.001C96.9987 152.814 117.185 173.001 141.998 173.001H329.995C354.808 173.001 374.995 152.814 374.995 128.001V30.0026H377.782L481.993 134.215V466.997Z" fill="white"/>
</g>
<defs>
<clipPath id="clip0">
<rect width="512" height="512" fill="white"/>
</clipPath>
</defs>
</svg>
