<svg width="25" height="25" viewBox="0 0 25 25" fill="none" xmlns="http://www.w3.org/2000/svg">
<path d="M20.7031 3.125H16.4062V2.34375C16.4062 1.04932 15.3569 0 14.0625 0H10.9375C9.64307 0 8.59375 1.04932 8.59375 2.34375V3.125H4.29688C3.21821 3.125 2.34375 3.99946 2.34375 5.07812V6.64062C2.34375 7.07212 2.69351 7.42188 3.125 7.42188H21.875C22.3065 7.42188 22.6562 7.07212 22.6562 6.64062V5.07812C22.6562 3.99946 21.7818 3.125 20.7031 3.125ZM10.1562 2.34375C10.1562 1.91309 10.5068 1.5625 10.9375 1.5625H14.0625C14.4932 1.5625 14.8438 1.91309 14.8438 2.34375V3.125H10.1562V2.34375Z" fill="white"/>
<path d="M3.82638 8.98438C3.68697 8.98438 3.57589 9.10088 3.58253 9.24014L4.22706 22.7676C4.28663 24.0195 5.31495 25 6.56788 25H18.4321C19.6851 25 20.7134 24.0195 20.773 22.7676L21.4175 9.24014C21.4241 9.10088 21.313 8.98438 21.1736 8.98438H3.82638ZM15.625 10.9375C15.625 10.5059 15.9746 10.1562 16.4063 10.1562C16.8379 10.1562 17.1875 10.5059 17.1875 10.9375V21.0938C17.1875 21.5254 16.8379 21.875 16.4063 21.875C15.9746 21.875 15.625 21.5254 15.625 21.0938V10.9375ZM11.7188 10.9375C11.7188 10.5059 12.0684 10.1562 12.5 10.1562C12.9316 10.1562 13.2813 10.5059 13.2813 10.9375V21.0938C13.2813 21.5254 12.9316 21.875 12.5 21.875C12.0684 21.875 11.7188 21.5254 11.7188 21.0938V10.9375ZM7.81251 10.9375C7.81251 10.5059 8.16212 10.1562 8.59376 10.1562C9.0254 10.1562 9.37501 10.5059 9.37501 10.9375V21.0938C9.37501 21.5254 9.0254 21.875 8.59376 21.875C8.16212 21.875 7.81251 21.5254 7.81251 21.0938V10.9375Z" fill="white"/>
</svg>
